<?xml version="1.0" encoding="UTF-8" standalone="no"?>
<!-- Created with Inkscape (http://www.inkscape.org/) -->

<svg
   width="11.079524mm"
   height="11.079565mm"
   viewBox="0 0 11.079524 11.079565"
   version="1.1"
   id="svg1"
   xml:space="preserve"
   inkscape:export-filename="bitmap.svg"
   inkscape:export-xdpi="96"
   inkscape:export-ydpi="96"
   xmlns:inkscape="http://www.inkscape.org/namespaces/inkscape"
   xmlns:sodipodi="http://sodipodi.sourceforge.net/DTD/sodipodi-0.dtd"
   xmlns="http://www.w3.org/2000/svg"
   xmlns:svg="http://www.w3.org/2000/svg"><sodipodi:namedview
     id="namedview1"
     pagecolor="#ffffff"
     bordercolor="#000000"
     borderopacity="0.25"
     inkscape:showpageshadow="2"
     inkscape:pageopacity="0.0"
     inkscape:pagecheckerboard="0"
     inkscape:deskcolor="#d1d1d1"
     inkscape:document-units="mm"
     inkscape:export-bgcolor="#ffffff10" /><defs
     id="defs1" /><g
     inkscape:label="Layer 1"
     inkscape:groupmode="layer"
     id="layer1"
     transform="translate(-60.708925,-89.588964)"><g
       id="g250012"><path
         style="display:inline;fill:#e0e7eb"
         d="m 64.226169,97.138561 -1.168027,-1.16823 0.66056,-0.659475 0.66056,-0.659475 -0.02702,0.07271 -0.02702,0.07271 0.02896,0.0906 0.02896,0.09059 0.957901,0.962875 c 0.526846,0.529582 0.991548,0.987224 1.032673,1.016983 l 0.07477,0.05411 0.107806,0.01309 0.107805,0.01309 -0.634944,0.634332 -0.634944,0.634332 z"
         id="path250016" /><path
         style="display:inline;fill:#cbd4db"
         d="m 62.43732,99.100859 -0.771403,-0.78386 0.582859,-0.582859 0.582859,-0.582859 0.697283,0.69695 0.697284,0.69695 -0.583326,0.583721 -0.583325,0.583722 0.0858,0.08852 c 0.04719,0.04869 0.08075,0.08741 0.07459,0.08605 -0.0062,-0.0014 -0.358341,-0.355207 -0.782612,-0.786331 z"
         id="path250015" /><path
         style="display:inline;fill:#fd8fdd"
         d="m 66.411987,96.973008 c -0.04836,-0.0288 -0.51342,-0.478159 -1.033459,-0.99857 l -0.945526,-0.946202 -0.04135,-0.0819 -0.04135,-0.08189 0.0048,-0.09397 0.0048,-0.09397 1.356508,-1.361065 1.356508,-1.361065 0.127185,-0.06922 0.127185,-0.06922 0.151597,-7.72e-4 0.151596,-7.71e-4 0.100495,0.03358 0.100494,0.03358 0.810966,0.806927 0.810966,0.806927 0.05139,0.106166 0.05139,0.106165 9.26e-4,0.160386 9.25e-4,0.160386 -0.0543,0.123011 -0.0543,0.123011 -1.273777,1.277697 c -0.700577,0.702733 -1.328493,1.321717 -1.39537,1.375519 l -0.121593,0.09782 -0.0794,-9.4e-5 -0.0794,-9.4e-5 z"
         id="path250014" /><path
         style="display:inline;fill:#98a9b4"
         d="m 62.618317,100.62861 -0.08793,-0.0379 -0.862327,-0.859274 -0.862327,-0.859273 -0.0484,-0.09321 -0.04841,-0.09321 v -0.127426 -0.127426 l 0.03394,-0.08124 c 0.01867,-0.04468 0.07505,-0.117329 0.125289,-0.16144 l 0.09134,-0.0802 0.104825,-0.02823 0.104825,-0.02823 0.08934,0.01676 c 0.169367,0.03177 0.244765,0.09706 1.098829,0.951455 0.848339,0.848668 0.91683,0.927614 0.94836,1.093134 l 0.0162,0.0851 -0.02749,0.10337 c -0.03664,0.13776 -0.129682,0.25607 -0.249428,0.31716 l -0.09804,0.05 -0.120338,-9.8e-4 -0.120338,-9.8e-4 z m 2.311375,-1.416583 -0.08793,-0.04732 -1.347072,-1.352211 -1.347071,-1.352211 -0.02968,-0.122804 -0.02968,-0.122804 0.01626,-0.07819 c 0.0089,-0.043 0.04325,-0.125141 0.07624,-0.182532 l 0.05998,-0.104346 0.130915,-0.06524 c 0.1438,-0.07166 0.208894,-0.07851 0.359724,-0.03789 l 0.100495,0.02707 1.364672,1.360874 c 0.75057,0.748481 1.382685,1.394791 1.4047,1.436245 l 0.04003,0.07537 v 0.13818 0.13818 l -0.0395,0.07537 c -0.09331,0.178041 -0.242674,0.264488 -0.453881,0.262688 l -0.130263,-0.0011 z m 3.734262,-6.504325 -0.674588,-0.674935 0.02552,-0.04737 c 0.10674,-0.198111 0.400312,-0.289464 0.614353,-0.191171 l 0.09431,0.04331 0.404013,0.401979 c 0.420709,0.41859 0.459286,0.46784 0.488522,0.623681 l 0.0177,0.09435 -0.03264,0.116588 -0.03264,0.116588 -0.09596,0.09596 c -0.05278,0.05278 -0.104518,0.09596 -0.114977,0.09596 -0.01046,0 -0.322582,-0.303721 -0.693605,-0.674935 z"
         id="path250013" /><path
         style="display:inline;fill:#65747e"
         d="m 69.118733,92.232933 -0.219109,-0.220129 1.186893,-1.184173 c 1.244852,-1.241998 1.242237,-1.239663 1.388636,-1.239663 h 0.09199 l 0.06956,0.04109 c 0.03826,0.0226 0.08805,0.07239 0.110652,0.110652 l 0.04109,0.06956 v 0.09731 0.09731 l -0.04106,0.06212 c -0.05973,0.09034 -2.353255,2.386055 -2.383789,2.386055 -0.01416,0 -0.124348,-0.09906 -0.244859,-0.22013 z"
         id="path250012" /></g></g></svg>
