<svg xmlns="http://www.w3.org/2000/svg" xml:space="preserve" width="41.875" height="41.876" viewBox="0 0 11.08 11.08"><path fill="#e0e7eb" d="M3.517 7.55 2.35 6.38l.66-.66.661-.659-.027.073-.027.073.03.09.028.091.958.963c.527.53.992.987 1.033 1.017l.075.054.107.013.108.013-.635.635-.635.634z"/><path fill="#cbd4db" d="m1.728 9.512-.771-.784.583-.583.583-.583.697.697.697.697-.583.584-.583.584.085.088a.5.5 0 0 1 .075.086 50 50 0 0 1-.783-.786"/><path fill="#fd8fdd" d="M5.703 7.384c-.048-.029-.513-.478-1.033-.999l-.946-.946-.041-.082-.042-.082.005-.093.005-.094 1.356-1.362 1.357-1.36.127-.07.127-.069h.152l.152-.002.1.034.1.034.812.807.81.806.052.107.051.106.001.16.001.16-.054.124-.054.123-1.274 1.277a63 63 0 0 1-1.396 1.376l-.121.098h-.16z"/><path fill="#98a9b4" d="m1.91 11.04-.089-.038-.862-.86-.862-.859-.049-.093L0 9.097v-.255l.034-.081a.6.6 0 0 1 .125-.162l.092-.08.104-.028.105-.028.09.016c.169.032.244.097 1.098.952.849.848.917.927.949 1.093l.016.085-.028.103a.5.5 0 0 1-.249.318l-.098.05-.12-.001-.12-.001zm2.31-1.417-.087-.047-1.347-1.352L1.439 6.87l-.03-.122-.03-.123.017-.078a.8.8 0 0 1 .076-.183l.06-.104.13-.066c.145-.071.21-.078.36-.037l.1.027 1.366 1.36c.75.749 1.382 1.395 1.404 1.437l.04.075v.276l-.04.076q-.137.266-.453.262h-.13zM7.956 3.12l-.675-.675.026-.048c.107-.198.4-.289.614-.19l.095.043.404.402c.42.418.459.467.488.623l.018.095-.033.116-.032.117-.096.096a.5.5 0 0 1-.115.096 18 18 0 0 1-.694-.675"/><path fill="#65747e" d="m8.41 2.644-.22-.22L9.379 1.24C10.622-.002 10.62 0 10.766 0h.092l.07.041a.4.4 0 0 1 .11.11l.042.07v.195l-.042.062c-.06.09-2.353 2.386-2.383 2.386-.014 0-.125-.099-.245-.22"/></svg>