<svg xmlns="http://www.w3.org/2000/svg" xml:space="preserve" width="43.449" height="43.022" viewBox="0 0 11.496 11.383"><g stroke="#000" stroke-width=".1"><path fill="none" stroke="none" d="M0 0h11.496v11.383H0z"/><path fill="#e0e7eb" d="M3.728 7.7 2.56 6.532l.66-.66.661-.66-.027.074-.027.072.029.09.029.091.958.963c.527.53.991.988 1.033 1.017l.074.054.108.014.108.013-.635.634-.635.634z"/><path fill="#cbd4db" d="m1.94 9.662-.772-.784.583-.582.582-.583.698.697.697.697-.583.583-.584.584.086.089c.047.048.08.087.075.086a50 50 0 0 1-.783-.787z"/><path fill="#fd8fdd" d="M5.914 7.534c-.049-.028-.514-.478-1.034-.998l-.945-.946-.042-.082-.04-.082.004-.094.005-.094 1.356-1.361 1.357-1.361.127-.07.127-.069h.152l.151-.001.1.033.101.034.811.807.811.807.052.106.051.106v.16l.002.161-.054.123-.055.123-1.274 1.278a66 66 0 0 1-1.395 1.375l-.122.098h-.159z"/><path fill="#98a9b4" d="m2.12 11.19-.088-.038-.862-.86-.862-.858-.049-.094-.048-.093v-.255l.034-.08A.6.6 0 0 1 .37 8.75l.091-.08.105-.029.105-.028.09.017c.169.032.244.097 1.098.951.848.849.917.928.948 1.093l.017.085-.028.104a.5.5 0 0 1-.25.317l-.097.05-.12-.001-.121-.001zm2.311-1.416-.087-.048-1.348-1.352L1.65 7.022l-.03-.123-.029-.123.016-.078a.8.8 0 0 1 .077-.183l.06-.104.13-.065c.144-.072.21-.079.36-.038l.1.027 1.365 1.36c.75.75 1.383 1.396 1.405 1.437l.04.076v.276l-.04.075q-.138.267-.453.263l-.13-.001zm3.735-6.505-.675-.675.026-.047c.106-.198.4-.29.614-.191l.094.043.404.402c.421.419.46.468.489.624l.018.094-.033.117-.033.116-.096.096a.5.5 0 0 1-.115.096c-.01 0-.322-.304-.693-.675z"/><path fill="#65747e" d="m8.62 2.794-.219-.22L9.588 1.39C10.833.148 10.831.15 10.977.15h.092l.07.042a.4.4 0 0 1 .11.11l.041.07v.194l-.04.062c-.06.09-2.354 2.387-2.385 2.387-.014 0-.124-.1-.244-.22z"/></g></svg>